<?xml version="1.0" encoding="UTF-8" standalone="no"?>
<svg width="48px" height="44px" viewBox="0 0 48 44" version="1.1" xmlns="http://www.w3.org/2000/svg" xmlns:xlink="http://www.w3.org/1999/xlink" xmlns:sketch="http://www.bohemiancoding.com/sketch/ns">
    <!-- Generator: Sketch 3.0.1 (7597) - http://www.bohemiancoding.com/sketch -->
    <title>bike_deselected</title>
    <description>Created with Sketch.</description>
    <defs></defs>
    <g id="Page-2" stroke="none" stroke-width="1" fill="none" fill-rule="evenodd" sketch:type="MSPage">
        <path d="M29.3162435,7.39839967 C31.230896,7.39839967 32.7904113,5.84081447 32.7904113,3.92423193 C32.7904113,2.0076494 31.230896,0.450064195 29.3162435,0.450064195 C27.3958008,0.450064195 25.8420758,2.0076494 25.8420758,3.92423193 C25.8420758,5.84081447 27.3958008,7.39839967 29.3162435,7.39839967 L29.3162435,7.39839967 Z M14.8424747,16.0741685 C14.2441458,16.6686372 13.875498,17.4908569 13.875498,18.3999308 C13.875498,19.6139594 14.5355899,20.6755107 15.5160772,21.2429581 L21.5958708,24.7673083 L21.5958708,34.8057229 L23.9119826,34.8057229 L25.8169846,22.5708622 L21.1152776,19.0773935 L25.5911637,14.5783463 L28.4264706,19.3649774 L37.0366163,19.3649774 L37.0366163,17.0488656 L30.858388,15.8908097 L27.1236577,9.58905544 C26.5523501,8.62400884 25.5023794,7.97742762 24.2980012,7.97742762 C23.3927875,7.97742762 22.5724979,8.34414533 21.9780292,8.93861403 L14.8424747,16.0741685 L14.8424747,16.0741685 Z M10.0153117,23.2251638 C4.68439428,23.2251638 0.364845723,27.5447124 0.364845723,32.8756297 C0.364845723,38.2065471 4.68439428,42.5260957 10.0153117,42.5260957 C15.346229,42.5260957 19.6657776,38.2065471 19.6657776,32.8756297 C19.6657776,27.5447124 15.346229,23.2251638 10.0153117,23.2251638 L10.0153117,23.2251638 Z M10.0153117,39.6309559 C6.28637162,39.6309559 3.2599855,36.6064999 3.2599855,32.8756297 C3.2599855,29.1447596 6.28637162,26.1203036 10.0153117,26.1203036 C13.7461818,26.1203036 16.7706378,29.1447596 16.7706378,32.8756297 C16.7706378,36.6064999 13.7461818,39.6309559 10.0153117,39.6309559 L10.0153117,39.6309559 Z M37.0366163,23.2251638 C31.7056989,23.2251638 27.3861503,27.5447124 27.3861503,32.8756297 C27.3861503,38.2065471 31.7056989,42.5260957 37.0366163,42.5260957 C42.3675337,42.5260957 46.6870822,38.2065471 46.6870822,32.8756297 C46.6870822,27.5447124 42.3675337,23.2251638 37.0366163,23.2251638 L37.0366163,23.2251638 Z M37.0366163,39.6309559 C33.3057461,39.6309559 30.2812901,36.6064999 30.2812901,32.8756297 C30.2812901,29.1447596 33.3057461,26.1203036 37.0366163,26.1203036 C40.7674864,26.1203036 43.7919424,29.1447596 43.7919424,32.8756297 C43.7919424,36.6064999 40.7674864,39.6309559 37.0366163,39.6309559 L37.0366163,39.6309559 Z" id="bike_deselected" fill="#D8D8D8" sketch:type="MSShapeGroup"></path>
    </g>
</svg>