<?xml version="1.0" encoding="UTF-8" standalone="no"?>
<svg width="48px" height="44px" viewBox="0 0 48 44" version="1.1" xmlns="http://www.w3.org/2000/svg" xmlns:xlink="http://www.w3.org/1999/xlink" xmlns:sketch="http://www.bohemiancoding.com/sketch/ns">
    <!-- Generator: Sketch 3.0.1 (7597) - http://www.bohemiancoding.com/sketch -->
    <title>bike_selected</title>
    <description>Created with Sketch.</description>
    <defs></defs>
    <g id="Page-2" stroke="none" stroke-width="1" fill="none" fill-rule="evenodd" sketch:type="MSPage">
        <path d="M29.3162435,7.19467219 C31.230896,7.19467219 32.7904113,5.63708699 32.7904113,3.72050445 C32.7904113,1.80392192 31.230896,0.246336715 29.3162435,0.246336715 C27.3958008,0.246336715 25.8420758,1.80392192 25.8420758,3.72050445 C25.8420758,5.63708699 27.3958008,7.19467219 29.3162435,7.19467219 L29.3162435,7.19467219 Z M14.8424747,15.8704411 C14.2441458,16.4649098 13.875498,17.2871295 13.875498,18.1962034 C13.875498,19.410232 14.5355899,20.4717832 15.5160772,21.0392306 L21.5958708,24.5635808 L21.5958708,34.6019954 L23.9119826,34.6019954 L25.8169846,22.3671347 L21.1152776,18.8736661 L25.5911637,14.3746188 L28.4264706,19.1612499 L37.0366163,19.1612499 L37.0366163,16.8451381 L30.858388,15.6870822 L27.1236577,9.38532796 C26.5523501,8.42028136 25.5023794,7.77370014 24.2980012,7.77370014 C23.3927875,7.77370014 22.5724979,8.14041785 21.9780292,8.73488655 L14.8424747,15.8704411 L14.8424747,15.8704411 Z M10.0153117,23.0214363 C4.68439428,23.0214363 0.364845723,27.3409849 0.364845723,32.6719023 C0.364845723,38.0028196 4.68439428,42.3223682 10.0153117,42.3223682 C15.346229,42.3223682 19.6657776,38.0028196 19.6657776,32.6719023 C19.6657776,27.3409849 15.346229,23.0214363 10.0153117,23.0214363 L10.0153117,23.0214363 Z M10.0153117,39.4272284 C6.28637162,39.4272284 3.2599855,36.4027724 3.2599855,32.6719023 C3.2599855,28.9410321 6.28637162,25.9165761 10.0153117,25.9165761 C13.7461818,25.9165761 16.7706378,28.9410321 16.7706378,32.6719023 C16.7706378,36.4027724 13.7461818,39.4272284 10.0153117,39.4272284 L10.0153117,39.4272284 Z M37.0366163,23.0214363 C31.7056989,23.0214363 27.3861503,27.3409849 27.3861503,32.6719023 C27.3861503,38.0028196 31.7056989,42.3223682 37.0366163,42.3223682 C42.3675337,42.3223682 46.6870822,38.0028196 46.6870822,32.6719023 C46.6870822,27.3409849 42.3675337,23.0214363 37.0366163,23.0214363 L37.0366163,23.0214363 Z M37.0366163,39.4272284 C33.3057461,39.4272284 30.2812901,36.4027724 30.2812901,32.6719023 C30.2812901,28.9410321 33.3057461,25.9165761 37.0366163,25.9165761 C40.7674864,25.9165761 43.7919424,28.9410321 43.7919424,32.6719023 C43.7919424,36.4027724 40.7674864,39.4272284 37.0366163,39.4272284 L37.0366163,39.4272284 Z" id="bike_selected" fill="#000000" sketch:type="MSShapeGroup"></path>
    </g>
</svg>