<?xml version="1.0" encoding="UTF-8" standalone="no"?>
<svg width="27px" height="44px" viewBox="0 0 27 44" version="1.1" xmlns="http://www.w3.org/2000/svg" xmlns:xlink="http://www.w3.org/1999/xlink" xmlns:sketch="http://www.bohemiancoding.com/sketch/ns">
    <!-- Generator: Sketch 3.0.1 (7597) - http://www.bohemiancoding.com/sketch -->
    <title>walk_deselected@2x</title>
    <description>Created with Sketch.</description>
    <defs></defs>
    <g id="Page-2" stroke="none" stroke-width="1" fill="none" fill-rule="evenodd" sketch:type="MSPage">
        <path d="M15.9494677,7.39839967 C17.8641202,7.39839967 19.4255655,5.84081447 19.4255655,3.92616202 C19.4255655,2.00378921 17.8641202,0.450064195 15.9494677,0.450064195 C14.0309551,0.450064195 12.4772301,2.00378921 12.4772301,3.92616202 C12.4772301,5.84081447 14.0309551,7.39839967 15.9494677,7.39839967 L15.9494677,7.39839967 Z M16.9164444,42.5260957 L16.9164444,29.0926471 L12.6914704,21.4012257 L14.1062287,15.8637884 L16.1791488,19.3649774 L25.6018637,19.3649774 L25.6018637,17.0488656 L18.6091361,15.8908097 L14.7508798,9.46166928 C14.1776422,8.49855278 13.1276715,7.85390166 11.9271535,7.85390166 C11.5990377,7.85390166 11.2805723,7.90215399 10.9814078,7.99286837 L0.510652309,11.258586 L0.510652309,21.2950706 L2.82676413,21.2950706 L3.98482005,14.219349 L8.0785477,12.9416273 L0.510652309,42.5260957 L2.82676413,42.5260957 L9.66701439,26.5622949 L12.8014857,30.9686977 L14.6003326,42.5260957 L16.9164444,42.5260957 L16.9164444,42.5260957 Z" id="walk_deselected" fill="#D8D8D8" sketch:type="MSShapeGroup"></path>
    </g>
</svg>