<?xml version="1.0" encoding="UTF-8" standalone="no"?>
<svg width="350px" height="80px" viewBox="0 0 350 80" version="1.1" xmlns="http://www.w3.org/2000/svg" xmlns:xlink="http://www.w3.org/1999/xlink" xmlns:sketch="http://www.bohemiancoding.com/sketch/ns">
    <!-- Generator: Sketch 3.0.1 (7597) - http://www.bohemiancoding.com/sketch -->
    <title>Report_button_homepage</title>
    <description>Created with Sketch.</description>
    <defs>
        <rect id="path-1" x="0" y="0" width="350" height="80" rx="6"></rect>
        <rect id="path-2" x="0" y="0" width="50" height="50" rx="40"></rect>
    </defs>
    <g id="Page-2" stroke="none" stroke-width="1" fill="none" fill-rule="evenodd" sketch:type="MSPage">
        <g id="Report_button_homepage" sketch:type="MSLayerGroup">
            <g id="Group-2">
                <g id="sr-button">
                    <use fill="none" sketch:type="MSShapeGroup" xlink:href="#path-1"></use>
                    <use fill="none" xlink:href="#path-1"></use>
                    <use fill="#38C4C8" fill-rule="evenodd" xlink:href="#path-1"></use>
                </g>
                <text id="Report-unsafe-area" fill="#FFFFFF" sketch:type="MSTextLayer" font-family="Roboto" font-size="29" font-weight="260">
                    <tspan x="83" y="48">Report unsafe area</tspan>
                </text>
                <g id="Rectangle-16-+-Fill-129" transform="translate(20.000000, 15.000000)">
                    <g id="Rectangle-16">
                        <use fill="none" sketch:type="MSShapeGroup" xlink:href="#path-2"></use>
                        <use fill="#32A7AB" fill-rule="evenodd" xlink:href="#path-2"></use>
                    </g>
                    <path d="M25.002,13.2 C22.711771,13.2 20.581558,13.8683 18.7633762,15.00605 L21.4276426,17.73665 C22.5137512,17.2057 23.7178716,16.88795 24.9999998,16.88795 C29.6384636,16.88795 33.40284,20.744 33.4008398,25.5 C33.40284,26.8161 33.0888086,28.0461 32.5747572,29.16335 L35.2390236,31.89395 C36.3491347,30.02845 36.9991997,27.8452 36.9991997,25.5 C36.9991997,18.70835 31.6286626,13.19795 25.002,13.2 L25.002,13.2 Z M24.9999998,8.68795 C34.0549052,8.69 41.4036401,16.21555 41.4036401,25.5 C41.4036401,29.0957 40.2935291,32.41875 38.4173415,35.14935 L40.9855983,37.7836 C43.4958493,34.356 44.9999997,30.11455 44.9999997,25.49795 C45.0019999,14.17785 36.0491047,5 24.9999998,5 C20.4975496,5 16.3591358,6.54365 13.0148014,9.1164 L15.5850584,11.7486 C18.2493248,9.82775 21.4936492,8.68795 24.9999998,8.68795 L24.9999998,8.68795 Z M26.2701268,29.69635 L27.6842682,28.24905 L27.652265,28.2183 C28.342334,27.5131 28.80238,26.57625 28.80238,25.5 C28.8003798,23.34955 27.0982096,21.605 25.002,21.605 C23.951895,21.60295 23.0338032,22.0724 22.3477346,22.7817 L22.3177316,22.7489 L20.90159,24.19825 L9.51645161,12.5317 C6.70017,16.06795 5,20.57795 5,25.5 C5,36.8242 13.9588958,46 25.002,46 C29.8044802,46 34.2109208,44.2616 37.6572655,41.367 L26.2701268,29.69635 L26.2701268,29.69635 Z" id="Fill-129" fill="#FFFFFF" sketch:type="MSShapeGroup"></path>
                </g>
            </g>
        </g>
    </g>
</svg>