<?xml version="1.0" encoding="UTF-8" standalone="no"?>
<svg width="350px" height="80px" viewBox="0 0 350 80" version="1.1" xmlns="http://www.w3.org/2000/svg" xmlns:xlink="http://www.w3.org/1999/xlink" xmlns:sketch="http://www.bohemiancoding.com/sketch/ns">
    <!-- Generator: Sketch 3.0.1 (7597) - http://www.bohemiancoding.com/sketch -->
    <title>SafeRoute_button_homepage</title>
    <description>Created with Sketch.</description>
    <defs>
        <rect id="path-1" x="0" y="0" width="350" height="80" rx="6"></rect>
    </defs>
    <g id="Page-2" stroke="none" stroke-width="1" fill="none" fill-rule="evenodd" sketch:type="MSPage">
        <g id="SafeRoute_button_homepage" sketch:type="MSLayerGroup">
            <g id="sr-button">
                <use fill="none" sketch:type="MSShapeGroup" xlink:href="#path-1"></use>
                <use fill="none" xlink:href="#path-1"></use>
                <use fill="#38C4C8" fill-rule="evenodd" xlink:href="#path-1"></use>
            </g>
            <text id="Take-a-safe-route" fill="#FFFFFF" sketch:type="MSTextLayer" font-family="Roboto" font-size="29" font-weight="260">
                <tspan x="83" y="51">Take a safe route</tspan>
            </text>
            <g id="Fill-136-+-Fill-133" transform="translate(26.000000, 12.000000)" sketch:type="MSShapeGroup">
                <path d="M20,0 C8.95714286,0 0,8.9319 0,19.95 C0,34.9125 20,57 20,57 C20,57 40,34.9125 40,19.95 C40,8.9319 31.0428571,0 20,0 L20,0 Z M20,27.075 C16.0542857,27.075 12.8542857,23.88585 12.8542857,19.95 C12.8542857,16.01415 16.0542857,12.825 20,12.825 C23.9457143,12.825 27.14,16.01415 27.14,19.95 C27.14,23.88585 23.9457143,27.075 20,27.075 L20,27.075 Z" id="Fill-136" fill="#32A7AB"></path>
                <path d="M20,6 C11.7178571,6 5,12.7381 5,21.05 C5,32.3375 20,49 20,49 C20,49 35,32.3375 35,21.05 C35,12.7381 28.2821429,6 20,6 L20,6 Z M20,26.425 C17.0407143,26.425 14.6407143,24.01915 14.6407143,21.05 C14.6407143,18.08085 17.0407143,15.675 20,15.675 C22.9592857,15.675 25.355,18.08085 25.355,21.05 C25.355,24.01915 22.9592857,26.425 20,26.425 L20,26.425 Z" id="Fill-133" fill="#FFFFFF"></path>
            </g>
        </g>
    </g>
</svg>