<?xml version="1.0" encoding="UTF-8" standalone="no"?>
<svg width="35px" height="30px" viewBox="0 0 35 30" version="1.1" xmlns="http://www.w3.org/2000/svg" xmlns:xlink="http://www.w3.org/1999/xlink" xmlns:sketch="http://www.bohemiancoding.com/sketch/ns">
    <!-- Generator: Sketch 3.0.1 (7597) - http://www.bohemiancoding.com/sketch -->
    <title>drive_selected</title>
    <description>Created with Sketch.</description>
    <defs></defs>
    <g id="Page-2" stroke="none" stroke-width="1" fill="none" fill-rule="evenodd" sketch:type="MSPage">
        <path d="M30.9536111,1.895625 C30.5588889,0.793125 29.4719444,0 28.1944444,0 L6.80555556,0 C5.53,0 4.44305556,0.793125 4.04833333,1.895625 L0,13.125 L0,28.125 C0,29.16 0.871111111,30 1.94444444,30 L3.88888889,30 C4.96416667,30 5.83333333,29.16 5.83333333,28.125 L5.83333333,26.25 L29.1666667,26.25 L29.1666667,28.125 C29.1666667,29.16 30.0377778,30 31.1111111,30 L33.0555556,30 C34.1308333,30 35,29.16 35,28.125 L35,13.125 L30.9536111,1.895625 L30.9536111,1.895625 Z M6.80555556,20.625 C5.19555556,20.625 3.88888889,19.365 3.88888889,17.8125 C3.88888889,16.26 5.19555556,15 6.80555556,15 C8.4175,15 9.72222222,16.26 9.72222222,17.8125 C9.72222222,19.365 8.4175,20.625 6.80555556,20.625 L6.80555556,20.625 Z M28.1944444,20.625 C26.5844444,20.625 25.2777778,19.365 25.2777778,17.8125 C25.2777778,16.26 26.5844444,15 28.1944444,15 C29.8063889,15 31.1111111,16.26 31.1111111,17.8125 C31.1111111,19.365 29.8063889,20.625 28.1944444,20.625 L28.1944444,20.625 Z M3.88888889,11.25 L6.61111111,2.8125 L28.3908333,2.8125 L31.1111111,11.25 L3.88888889,11.25 L3.88888889,11.25 Z" id="drive_selected" fill="#000000" sketch:type="MSShapeGroup"></path>
    </g>
</svg>