<?xml version="1.0" encoding="UTF-8" standalone="no"?>
<svg width="27px" height="44px" viewBox="0 0 27 44" version="1.1" xmlns="http://www.w3.org/2000/svg" xmlns:xlink="http://www.w3.org/1999/xlink" xmlns:sketch="http://www.bohemiancoding.com/sketch/ns">
    <!-- Generator: Sketch 3.0.1 (7597) - http://www.bohemiancoding.com/sketch -->
    <title>walk_selected</title>
    <description>Created with Sketch.</description>
    <defs></defs>
    <g id="Page-2" stroke="none" stroke-width="1" fill="none" fill-rule="evenodd" sketch:type="MSPage">
        <path d="M15.9494677,7.19467219 C17.8641202,7.19467219 19.4255655,5.63708699 19.4255655,3.72243455 C19.4255655,1.80006173 17.8641202,0.246336715 15.9494677,0.246336715 C14.0309551,0.246336715 12.4772301,1.80006173 12.4772301,3.72243455 C12.4772301,5.63708699 14.0309551,7.19467219 15.9494677,7.19467219 L15.9494677,7.19467219 Z M16.9164444,42.3223682 L16.9164444,28.8889196 L12.6914704,21.1974983 L14.1062287,15.6600609 L16.1791488,19.1612499 L25.6018637,19.1612499 L25.6018637,16.8451381 L18.6091361,15.6870822 L14.7508798,9.25794181 C14.1776422,8.29482531 13.1276715,7.65017418 11.9271535,7.65017418 C11.5990377,7.65017418 11.2805723,7.69842651 10.9814078,7.78914089 L0.510652309,11.0548586 L0.510652309,21.0913431 L2.82676413,21.0913431 L3.98482005,14.0156215 L8.0785477,12.7378998 L0.510652309,42.3223682 L2.82676413,42.3223682 L9.66701439,26.3585674 L12.8014857,30.7649702 L14.6003326,42.3223682 L16.9164444,42.3223682 L16.9164444,42.3223682 Z" id="walk_selected" fill="#000000" sketch:type="MSShapeGroup"></path>
    </g>
</svg>