<?xml version="1.0" encoding="UTF-8" standalone="no"?>
<svg width="30px" height="36px" viewBox="0 0 30 36" version="1.1" xmlns="http://www.w3.org/2000/svg" xmlns:xlink="http://www.w3.org/1999/xlink" xmlns:sketch="http://www.bohemiancoding.com/sketch/ns">
    <!-- Generator: Sketch 3.0.1 (7597) - http://www.bohemiancoding.com/sketch -->
    <title>bus_deselected</title>
    <description>Created with Sketch.</description>
    <defs></defs>
    <g id="Page-2" stroke="none" stroke-width="1" fill="none" fill-rule="evenodd" sketch:type="MSPage">
        <path d="M24.375,0 L5.625,0 C2.52,0 0,2.54652632 0,5.68421053 L0,26.5263158 C0,28.2031579 0.733125,29.6943158 1.875,30.7364211 L1.875,34.1052632 C1.875,35.1511579 2.715,36 3.75,36 L5.625,36 C6.661875,36 7.5,35.1511579 7.5,34.1052632 L7.5,32.2105263 L22.5,32.2105263 L22.5,34.1052632 C22.5,35.1511579 23.338125,36 24.375,36 L26.25,36 C27.285,36 28.125,35.1511579 28.125,34.1052632 L28.125,30.7364211 C29.266875,29.6962105 30,28.2031579 30,26.5263158 L30,5.68421053 C30,2.54652632 27.481875,0 24.375,0 L24.375,0 Z M11.25,1.89473684 L18.75,1.89473684 L18.75,3.78947368 L11.25,3.78947368 L11.25,1.89473684 Z M6.5625,28.4210526 C5.01,28.4210526 3.75,27.1477895 3.75,25.5789474 C3.75,24.0101053 5.01,22.7368421 6.5625,22.7368421 C8.116875,22.7368421 9.375,24.0101053 9.375,25.5789474 C9.375,27.1477895 8.116875,28.4210526 6.5625,28.4210526 L6.5625,28.4210526 Z M23.4375,28.4210526 C21.885,28.4210526 20.625,27.1477895 20.625,25.5789474 C20.625,24.0101053 21.885,22.7368421 23.4375,22.7368421 C24.991875,22.7368421 26.25,24.0101053 26.25,25.5789474 C26.25,27.1477895 24.991875,28.4210526 23.4375,28.4210526 L23.4375,28.4210526 Z M3.75,5.68421053 L26.25,5.68421053 L26.25,17.0526316 L3.75,17.0526316 L3.75,5.68421053 Z" id="bus_deselected" fill="#D8D8D8" sketch:type="MSShapeGroup"></path>
    </g>
</svg>